<svg width="32" height="32" viewBox="0 0 32 32" fill="none" xmlns="http://www.w3.org/2000/svg">
  <!-- Main plumbus body - organic blob shape -->
  <path d="M16 8C13 8 11 10 10 12C9 14 9.5 16 10 18C10.5 20 11 22 13 23C15 24 17 24 19 23C21 22 21.5 20 22 18C22.5 16 23 14 22 12C21 10 19 8 16 8Z" fill="#D4A574" stroke="#B8956A" stroke-width="0.5"/>
  
  <!-- Handle/stem at top -->
  <path d="M16 8C16 8 15.5 6 15.5 4.5C15.5 3.5 16 3 16 3C16 3 16.5 3.5 16.5 4.5C16.5 6 16 8 16 8Z" fill="#C49668" stroke="#B8956A" stroke-width="0.5"/>
  
  <!-- Small knob at top of handle -->
  <ellipse cx="16" cy="3.5" rx="1" ry="0.8" fill="#E6B885"/>
  
  <!-- Tentacle-like appendages from bottom -->
  <!-- Left tentacle -->
  <path d="M13 23C13 23 12 24 11 25C10 26 9.5 27 9 28C8.5 29 8 29.5 8 30" stroke="#C49668" stroke-width="1" fill="none" stroke-linecap="round"/>
  <path d="M8 30C8 30 7.5 30.5 7 30.5C6.5 30.5 6.5 30 7 30C7.5 30 8 30 8 30Z" fill="#D4A574"/>
  
  <!-- Center-left tentacle -->
  <path d="M15 23.5C15 23.5 14.5 25 14 26.5C13.5 28 13 29 12.5 30" stroke="#C49668" stroke-width="1" fill="none" stroke-linecap="round"/>
  <path d="M12.5 30C12.5 30 12 30.5 11.5 30.5C11 30.5 11 30 11.5 30C12 30 12.5 30 12.5 30Z" fill="#D4A574"/>
  
  <!-- Center-right tentacle -->
  <path d="M17 23.5C17 23.5 17.5 25 18 26.5C18.5 28 19 29 19.5 30" stroke="#C49668" stroke-width="1" fill="none" stroke-linecap="round"/>
  <path d="M19.5 30C19.5 30 20 30.5 20.5 30.5C21 30.5 21 30 20.5 30C20 30 19.5 30 19.5 30Z" fill="#D4A574"/>
  
  <!-- Right tentacle -->
  <path d="M19 23C19 23 20 24 21 25C22 26 22.5 27 23 28C23.5 29 24 29.5 24 30" stroke="#C49668" stroke-width="1" fill="none" stroke-linecap="round"/>
  <path d="M24 30C24 30 24.5 30.5 25 30.5C25.5 30.5 25.5 30 25 30C24.5 30 24 30 24 30Z" fill="#D4A574"/>
  
  <!-- Surface details on main body -->
  <!-- Organic bumps and creases -->
  <ellipse cx="13.5" cy="12" rx="1.5" ry="1" fill="#E6B885" opacity="0.6"/>
  <ellipse cx="18.5" cy="14" rx="1" ry="1.5" fill="#E6B885" opacity="0.6"/>
  <ellipse cx="15" cy="18" rx="1.2" ry="0.8" fill="#E6B885" opacity="0.6"/>
  
  <!-- Small indentations for organic look -->
  <circle cx="14" cy="15" r="0.5" fill="#B8956A" opacity="0.4"/>
  <circle cx="18" cy="17" r="0.3" fill="#B8956A" opacity="0.4"/>
  
  <!-- Highlight on the handle -->
  <path d="M15.7 4C15.7 4 15.8 5 15.8 6C15.8 7 15.9 7.5 16 7.8" stroke="#E6B885" stroke-width="0.3" fill="none" stroke-linecap="round"/>
</svg>